<svg width="112" height="114" viewBox="0 0 112 114" fill="none" xmlns="http://www.w3.org/2000/svg">
<rect width="112" height="112" rx="10" fill="#FDFDFD"/>
<path d="M0 71H112V104C112 109.523 107.523 114 102 114H10C4.47715 114 0 109.523 0 104V71Z" fill="#423A57"/>
<path d="M20.25 48.18C20.16 47.655 20.13 47.085 20.13 46.245V38.31C20.13 37.395 20.16 36.84 20.25 36.24H18.06C18.15 36.81 18.18 37.425 18.18 38.31V43.35C18.18 43.98 18.225 44.88 18.285 45.465C17.955 44.865 17.475 44.085 17.115 43.545L13.32 37.83C12.81 37.065 12.54 36.615 12.405 36.24H10.065C10.155 36.855 10.185 37.395 10.185 38.175V45.915C10.185 46.935 10.14 47.685 10.065 48.18H12.255C12.18 47.64 12.135 46.935 12.135 45.93V41.01C12.135 40.665 12.105 39.99 12.09 39.705C12.045 39.15 12.045 39.15 12.03 38.94C12.39 39.645 12.765 40.29 13.05 40.74L16.92 46.575C17.355 47.235 17.625 47.67 17.88 48.18H20.25ZM32.0743 36C30.4843 36 29.2393 36.48 28.2043 37.5C27.0943 38.58 26.4943 40.245 26.4943 42.18C26.4943 45.99 28.6843 48.435 32.0893 48.435C35.4943 48.435 37.6993 45.975 37.6993 42.18C37.6993 40.23 37.1143 38.595 36.0193 37.5C34.9993 36.48 33.7243 36 32.0743 36ZM32.1193 46.65C31.2043 46.65 30.4093 46.335 29.7943 45.735C29.0143 44.955 28.5793 43.695 28.5793 42.195C28.5793 39.48 29.9443 37.77 32.1043 37.77C33.0043 37.77 33.7993 38.085 34.4143 38.685C35.1793 39.45 35.5993 40.665 35.5993 42.18C35.5993 44.94 34.2643 46.65 32.1193 46.65ZM52.0077 44.16C51.8877 44.85 51.7677 45.165 51.5127 45.54C51.0327 46.245 50.1327 46.65 49.0827 46.65C46.9827 46.65 45.6627 44.94 45.6627 42.195C45.6627 39.435 46.9527 37.77 49.0827 37.77C50.0127 37.77 50.7627 38.085 51.2727 38.7C51.5727 39.045 51.7077 39.33 51.9177 39.99L54.0027 39.51C53.8227 38.94 53.7177 38.67 53.5377 38.355C53.1627 37.695 52.6227 37.14 51.9477 36.72C51.1227 36.225 50.2377 36 49.0677 36C47.5677 36 46.2177 36.51 45.3177 37.425C44.1927 38.55 43.5627 40.29 43.5627 42.27C43.5627 44.19 44.1477 45.885 45.1977 46.98C46.1127 47.925 47.4177 48.42 49.0527 48.42C50.8527 48.42 52.2927 47.835 53.1477 46.785C53.5977 46.2 53.8677 45.615 54.1527 44.535L52.0077 44.16ZM68.3722 36.24C68.4622 36.78 68.4922 37.32 68.4922 38.175V41.055H62.4622V38.16C62.4622 37.365 62.4922 36.87 62.5822 36.24H60.3472C60.4372 36.825 60.4672 37.29 60.4672 38.175V46.245C60.4672 47.13 60.4372 47.61 60.3472 48.18H62.5822C62.4922 47.565 62.4622 47.115 62.4622 46.245V42.855H68.4922V46.245C68.4922 47.13 68.4622 47.595 68.3722 48.18H70.6072C70.5172 47.55 70.4872 47.115 70.4872 46.245V38.16C70.4872 37.305 70.5172 36.855 70.6072 36.24H68.3722ZM77.2398 36.24C77.3298 36.84 77.3598 37.245 77.3598 38.175V46.245C77.3598 47.13 77.3298 47.61 77.2398 48.18H79.5198C79.4298 47.61 79.3998 47.13 79.3998 46.245V38.175C79.3998 37.275 79.4298 36.81 79.5198 36.24H77.2398ZM15.33 61.04H17.205C18.285 61.04 18.855 61.07 19.41 61.145V59.135C18.84 59.21 18.285 59.24 17.205 59.24H11.265C10.41 59.24 9.765 59.21 9.225 59.135V61.145C9.75 61.07 10.395 61.04 11.28 61.04H13.305V69.23C13.305 70.04 13.275 70.55 13.185 71.18H15.45C15.36 70.565 15.33 70.04 15.33 69.23V61.04ZM30.3898 59C28.7998 59 27.5548 59.48 26.5198 60.5C25.4098 61.58 24.8098 63.245 24.8098 65.18C24.8098 68.99 26.9998 71.435 30.4048 71.435C33.8098 71.435 36.0148 68.975 36.0148 65.18C36.0148 63.23 35.4298 61.595 34.3348 60.5C33.3148 59.48 32.0398 59 30.3898 59ZM30.4348 69.65C29.5198 69.65 28.7248 69.335 28.1098 68.735C27.3298 67.955 26.8948 66.695 26.8948 65.195C26.8948 62.48 28.2598 60.77 30.4198 60.77C31.3198 60.77 32.1148 61.085 32.7298 61.685C33.4948 62.45 33.9148 63.665 33.9148 65.18C33.9148 67.94 32.5798 69.65 30.4348 69.65ZM47.3831 64.115L50.5931 60.83C51.2531 60.155 51.7481 59.675 52.1831 59.24H49.3481C49.0481 59.735 48.7631 60.095 48.1781 60.695L44.3531 64.67V61.175C44.3531 60.32 44.3981 59.735 44.4881 59.24H42.2681C42.3581 59.87 42.3881 60.365 42.3881 61.175V69.245C42.3881 70.04 42.3581 70.505 42.2681 71.18H44.4881C44.3831 70.55 44.3531 70.13 44.3531 69.245V67.04L45.9881 65.405L48.9731 69.605C49.3181 70.1 49.6931 70.73 49.9181 71.18H52.6931C52.2581 70.7 52.0931 70.49 51.1931 69.275L47.3831 64.115ZM66.5572 59.24C66.6472 59.795 66.6772 60.335 66.6772 61.295V66.575C66.6772 68.615 65.6422 69.68 63.6322 69.68C61.6072 69.68 60.5572 68.615 60.5572 66.59V61.295C60.5572 60.32 60.5872 59.75 60.6772 59.24H58.4422C58.5322 59.78 58.5622 60.365 58.5622 61.295V66.59C58.5622 68.09 58.9222 69.215 59.6872 70.04C60.5122 70.94 61.8922 71.45 63.5572 71.45C66.8272 71.45 68.6722 69.71 68.6722 66.605V61.28C68.6722 60.335 68.7022 59.795 68.7922 59.24H66.5572Z" fill="#423A57"/>
</svg>
