<?xml version="1.0" standalone="no"?>
<!DOCTYPE svg PUBLIC "-//W3C//DTD SVG 20010904//EN"
 "http://www.w3.org/TR/2001/REC-SVG-20010904/DTD/svg10.dtd">
<svg version="1.0" xmlns="http://www.w3.org/2000/svg"
 width="912.000000pt" height="912.000000pt" viewBox="0 0 912.000000 912.000000"
 preserveAspectRatio="xMidYMid meet">
<metadata>
Created by potrace 1.11, written by Peter Selinger 2001-2013
</metadata>
<g transform="translate(0.000000,912.000000) scale(0.100000,-0.100000)"
fill="#000000" stroke="none">
<path d="M779 9116 c-2 -2 -20 -7 -39 -9 -19 -3 -36 -6 -37 -7 -2 -2 -11 -3
-20 -5 -10 -1 -25 -5 -33 -8 -8 -3 -42 -16 -75 -28 -33 -12 -67 -27 -75 -34
-8 -6 -36 -24 -62 -39 -27 -15 -48 -31 -48 -36 0 -6 -5 -10 -12 -10 -17 0
-126 -117 -163 -175 -43 -66 -93 -175 -100 -215 -3 -19 -8 -37 -11 -42 -3 -4
-8 -18 -12 -30 -12 -39 -13 -7756 -1 -7813 21 -100 85 -267 109 -285 4 -3 9
-10 11 -16 10 -28 141 -174 156 -174 4 0 14 -9 21 -20 7 -11 19 -20 26 -20 8
0 16 -4 18 -8 5 -12 106 -66 168 -90 144 -55 -117 -52 3990 -49 2082 1 3794 5
3805 9 11 4 43 13 70 21 67 19 158 62 225 108 54 36 170 142 170 154 0 3 9 16
21 28 27 29 99 160 99 181 0 9 4 16 8 16 5 0 9 6 9 13 0 11 17 78 32 122 3 11
7 1762 8 3890 2 4027 4 3868 -32 4010 -12 52 -75 176 -118 235 -123 167 -289
272 -497 314 -66 14 -512 16 -3841 16 -2071 0 -3768 -2 -3770 -4z"/>
</g>
</svg>
