<svg width="45" height="45" viewBox="0 0 45 45" fill="none" xmlns="http://www.w3.org/2000/svg">
<path d="M25.1546 22.5077L33.2171 14.4639C33.5702 14.1109 33.7685 13.632 33.7685 13.1327C33.7685 12.6334 33.5702 12.1545 33.2171 11.8014C32.8641 11.4484 32.3852 11.25 31.8859 11.25C31.3866 11.25 30.9077 11.4484 30.5546 11.8014L22.5109 19.8639L14.4671 11.8014C14.1141 11.4484 13.6352 11.25 13.1359 11.25C12.6366 11.25 12.1577 11.4484 11.8046 11.8014C11.4516 12.1545 11.2532 12.6334 11.2532 13.1327C11.2532 13.632 11.4516 14.1109 11.8046 14.4639L19.8671 22.5077L11.8046 30.5514C11.6289 30.7257 11.4894 30.9331 11.3942 31.1616C11.299 31.3901 11.25 31.6351 11.25 31.8827C11.25 32.1302 11.299 32.3753 11.3942 32.6038C11.4894 32.8322 11.6289 33.0396 11.8046 33.2139C11.9789 33.3897 12.1863 33.5292 12.4148 33.6243C12.6433 33.7195 12.8883 33.7685 13.1359 33.7685C13.3834 33.7685 13.6285 33.7195 13.857 33.6243C14.0854 33.5292 14.2928 33.3897 14.4671 33.2139L22.5109 25.1514L30.5546 33.2139C30.7289 33.3897 30.9363 33.5292 31.1648 33.6243C31.3933 33.7195 31.6383 33.7685 31.8859 33.7685C32.1334 33.7685 32.3785 33.7195 32.607 33.6243C32.8354 33.5292 33.0428 33.3897 33.2171 33.2139C33.3929 33.0396 33.5324 32.8322 33.6275 32.6038C33.7227 32.3753 33.7717 32.1302 33.7717 31.8827C33.7717 31.6351 33.7227 31.3901 33.6275 31.1616C33.5324 30.9331 33.3929 30.7257 33.2171 30.5514L25.1546 22.5077Z" fill="#423A57"/>
</svg>
